Coordinates
version=1
nRows=5
nColumns=40
inDegrees=yes

Units are S.I. units (second, meters, Newtons, ...)
If the header above contains a line with 'inDegrees', this indicates whether rotational values are in degrees (yes) or radians (no).

endheader
time	pelvis_tilt	pelvis_list	pelvis_rotation	pelvis_tx	pelvis_ty	pelvis_tz	hip_flexion_r	hip_adduction_r	hip_rotation_r	knee_angle_r	knee_angle_r_beta	ankle_angle_r	subtalar_angle_r	mtp_angle_r	hip_flexion_l	hip_adduction_l	hip_rotation_l	knee_angle_l	knee_angle_l_beta	ankle_angle_l	subtalar_angle_l	mtp_angle_l	lumbar_extension	lumbar_bending	lumbar_rotation	arm_flex_r	arm_add_r	arm_rot_r	elbow_flex_r	pro_sup_r	wrist_flex_r	wrist_dev_r	arm_flex_l	arm_add_l	arm_rot_l	elbow_flex_l	pro_sup_l	wrist_flex_l	wrist_dev_l
      0.64000000	     71.05474341	     78.85770074	    -72.96661230	      0.96193831	      0.34223385	      0.92777237	    -28.95124481	      4.24920579	      0.20734047	     22.21664720	      0.38775364	    -18.01235712	      0.00000000	      0.00000000	     21.09780898	     -3.30054763	      2.40061092	     24.79366905	      0.43273116	    -14.26621595	      0.00000000	      0.00000000	    -22.45646641	      2.37306930	      6.32490288	      8.78628182	    -14.63562694	     17.85164965	     43.58228290	     77.98659459	      0.00000000	      0.00000000	     -2.50516639	    -17.46017709	     16.51679524	     39.74677923	     79.11198018	      0.00000000	      0.00000000
      0.64400000	     71.67593268	     78.84990185	    -73.42496115	      0.96858830	      0.34288909	      0.92837731	    -28.87654526	      4.10201014	     -0.07743097	     22.74087743	      0.39690319	    -19.63259110	      0.00000000	      0.00000000	     21.01591067	     -3.05238867	      2.70411463	     25.47097476	      0.44455237	    -14.24465635	      0.00000000	      0.00000000	    -22.47964277	      2.25946694	      6.12563128	      8.53169380	    -14.44816407	     17.58532151	     43.33959305	     78.12438136	      0.00000000	      0.00000000	     -2.49710421	    -17.46776163	     16.57707879	     39.66186482	     79.08777697	      0.00000000	      0.00000000
      0.64800000	     72.53782365	     78.78852992	    -73.82967648	      0.97499406	      0.34369747	      0.92902903	    -28.83424106	      4.05851503	     -0.74814392	     23.27806847	      0.40627894	    -21.35073949	      0.00000000	      0.00000000	     20.85940501	     -2.67665128	      3.25801857	     26.00463669	      0.45386653	    -14.39779544	      0.00000000	      0.00000000	    -22.60676769	      2.16651380	      5.65105025	      8.29590088	    -14.23635712	     17.34748699	     43.17351352	     78.21935407	      0.00000000	      0.00000000	     -2.72709908	    -17.67942829	     16.44451764	     40.27515559	     79.04712342	      0.00000000	      0.00000000
      0.65200000	     73.01686050	     78.73792482	    -74.21983065	      0.98147863	      0.34428268	      0.92985654	    -28.73659256	      3.92686686	     -0.86054295	     23.85850306	      0.41640943	    -22.83374901	      0.00000000	      0.00000000	     20.61179548	     -2.48738109	      3.52070482	     26.42284574	      0.46116566	    -14.51172182	      0.00000000	      0.00000000	    -22.67602856	      2.05098485	      5.50659604	      8.12943796	    -14.09948802	     17.26895348	     42.86907734	     78.23892154	      0.00000000	      0.00000000	     -2.72427854	    -17.69434858	     16.37183613	     40.36105740	     79.04246145	      0.00000000	      0.00000000
      0.65600000	     73.43356765	     78.70957164	    -74.49849138	      0.98798147	      0.34466968	      0.93063840	    -28.61117481	      3.87627942	     -0.81590400	     24.42852643	      0.42635822	    -24.20103611	      0.00000000	      0.00000000	     20.38535093	     -2.33086559	      3.77886450	     26.83480503	      0.46835570	    -14.60355510	      0.00000000	      0.00000000	    -22.71979889	      1.95521383	      5.31823514	      7.91682235	    -13.93931203	     17.15529498	     42.69537245	     78.20780753	      0.00000000	      0.00000000	     -2.69319194	    -17.75530412	     16.37463254	     40.31785508	     79.07658395	      0.00000000	      0.00000000
